<svg width="20" height="20" viewBox="0 0 20 20" fill="none" xmlns="http://www.w3.org/2000/svg">
<rect width="20" height="20" rx="10" fill="#ECECEC"/>
<g clip-path="url(#clip0_5220_459)">
<path d="M7.03378 4.25089L7.73398 4.03983C8.52748 3.80065 9.37528 4.18719 9.71509 4.94309L10.2561 6.14652C10.5457 6.79082 10.3931 7.54802 9.87646 8.02979L8.97988 8.86587C8.95368 8.8903 8.93709 8.92331 8.93311 8.95892C8.9065 9.19721 9.06803 9.66125 9.44019 10.3058C9.71082 10.7746 9.95577 11.1033 10.1643 11.2882C10.3095 11.417 10.3895 11.4449 10.4235 11.4347L11.6297 11.066C12.3051 10.8595 13.037 11.1057 13.4502 11.6784L14.2186 12.7434C14.7023 13.4137 14.6153 14.3385 14.0151 14.9069L13.4833 15.4105C12.9095 15.954 12.0926 16.1565 11.3313 15.944C9.67884 15.4828 8.19726 14.0883 6.87013 11.7897C5.54117 9.48783 5.07485 7.50516 5.50472 5.84209C5.70144 5.081 6.28112 4.47776 7.03378 4.25089ZM7.29352 5.1126C6.84192 5.24872 6.49412 5.61066 6.37608 6.06731C6.01449 7.46622 6.42781 9.22354 7.64956 11.3397C8.86968 13.453 10.183 14.6891 11.5733 15.0772C12.03 15.2047 12.5202 15.0831 12.8645 14.7571L13.3963 14.2534C13.6691 13.9951 13.7086 13.5747 13.4888 13.27L12.7203 12.205C12.5325 11.9447 12.1998 11.8328 11.8929 11.9266L10.6837 12.2963C9.98183 12.5055 9.34482 11.9407 8.66077 10.7558C8.19978 9.9574 7.98493 9.34019 8.03867 8.85902C8.06651 8.60976 8.18265 8.3787 8.36608 8.20765L9.26267 7.37157C9.4975 7.15259 9.56688 6.80841 9.43522 6.51554L8.89422 5.31211C8.73976 4.96852 8.3544 4.79282 7.99372 4.90154L7.29352 5.1126Z" fill="#3425FF"/>
</g>
<defs>
<clipPath id="clip0_5220_459">
<rect width="12" height="12" fill="white" transform="translate(4 4)"/>
</clipPath>
</defs>
</svg>
