<svg width="22" height="22" viewBox="0 0 22 22" fill="none" xmlns="http://www.w3.org/2000/svg">
<path opacity="0.4" d="M17.2411 8.26917C16.8272 8.26917 16.279 8.26 15.5964 8.26C13.9318 8.26 12.5631 6.88225 12.5631 5.202V2.254C12.5631 2.02209 12.3779 1.83325 12.1483 1.83325H7.29966C5.03691 1.83325 3.20801 3.69042 3.20801 5.9665V15.8436C3.20801 18.2315 5.12404 20.1666 7.48845 20.1666H14.7088C16.9633 20.1666 18.7913 18.3213 18.7913 16.0434V8.68167C18.7913 8.44883 18.6071 8.26092 18.3765 8.26183C17.989 8.26458 17.5243 8.26917 17.2411 8.26917Z" fill="#C9C1FF"/>
<path d="M14.7438 2.3533C14.4697 2.06822 13.9912 2.26438 13.9912 2.65947V5.07672C13.9912 6.09055 14.8263 6.92472 15.8401 6.92472C16.479 6.93205 17.3664 6.93388 18.1199 6.93205C18.5058 6.93113 18.702 6.47005 18.4343 6.19138C17.4672 5.1858 15.7356 3.38363 14.7438 2.3533Z" fill="#3425FF"/>
<path d="M13.2164 13.6516C13.5931 13.6516 13.8993 13.9578 13.8993 14.3345C13.8993 14.7113 13.5931 15.0165 13.2164 15.0165H8.22604C7.84929 15.0165 7.54404 14.7113 7.54404 14.3345C7.54404 13.9578 7.84929 13.6516 8.22604 13.6516H13.2164ZM11.3289 9.07361C11.7056 9.07361 12.0118 9.37978 12.0118 9.75653C12.0118 10.1333 11.7056 10.4385 11.3289 10.4385H8.22595C7.8492 10.4385 7.54395 10.1333 7.54395 9.75653C7.54395 9.37978 7.8492 9.07361 8.22595 9.07361H11.3289Z" fill="#3425FF"/>
</svg>
