<svg width="282" height="18" viewBox="0 0 282 18" fill="none" xmlns="http://www.w3.org/2000/svg">
<path d="M57.8069 8.14484L57.9533 8.36457C55.683 8.0716 53.1198 8.36457 50.703 8.21808L50.8495 8.29132C44.6977 8.36457 39.0586 8.0716 32.9801 7.92512C33.0533 7.92512 33.1265 7.99836 33.1998 7.99836C32.9068 7.92512 32.6139 7.85187 32.2477 7.85187C32.1745 7.92512 32.321 7.92512 32.4674 7.92512C31.1492 8.21808 28.7324 7.77863 27.9268 7.99836C27.5607 7.99836 27.4142 7.85187 27.6339 7.77863C22.8736 7.70539 17.8203 7.63215 12.9868 7.48566C12.7671 7.55891 12.6939 7.55891 12.7671 7.70539C8.59269 7.1927 4.19857 7.41242 0.0241517 7.48566C-0.122319 7.33918 0.463564 7.33918 0.0241517 7.26594C1.34239 7.04621 2.51415 7.48566 3.75916 7.26594L3.61268 7.1927C4.49151 7.11945 3.75916 7.48566 4.71122 7.33918C5.07739 7.26594 4.63798 7.1927 4.78445 7.1927C6.68857 7.26594 8.66593 7.11945 10.4968 7.41242C10.9362 7.1927 12.5474 7.41242 13.2798 7.1927C13.7924 7.26594 14.2318 7.26594 14.4515 7.41242C21.0427 7.26594 27.9268 7.48566 34.7377 7.48566C37.9601 7.92512 41.7683 7.41242 45.5766 7.55891V7.48566C46.8216 7.63215 48.6524 7.63215 50.1172 7.55891L51.3622 7.77863C60.2969 7.41242 69.3781 7.63215 78.386 7.48566C88.639 7.33918 97.6469 7.04621 107.68 7.63215C107.68 7.55891 107.753 7.55891 107.46 7.55891C110.317 7.63215 112.953 7.48566 115.663 7.55891V7.48566C119.032 7.70539 122.547 7.63215 125.989 7.63215H127.307C127.673 7.63215 128.113 7.55891 128.479 7.48566C129.285 7.26594 130.017 6.82649 130.676 6.38704C131.994 5.43489 133.166 4.18978 134.338 3.01791C135.729 1.55307 138 0.820651 140.123 1.33334C141.149 1.55307 142.174 2.13901 142.98 2.87142C143.785 3.60384 144.444 4.4095 145.177 5.21517C145.909 5.94758 146.715 6.68 147.667 7.1927C148.106 7.41242 148.619 7.63215 149.131 7.77863C149.644 7.92511 150.157 7.92512 150.669 7.92512C152.793 7.92512 154.917 7.99836 157.041 7.99836V7.92512C163.778 8.14484 170.223 7.63215 176.888 7.77863C183.772 7.55891 191.022 8.29132 197.979 7.99836C202.3 7.55891 207.939 8.51105 211.967 8.0716C220.243 7.33918 228.299 7.85187 236.574 8.21808C244.191 7.99836 251.881 8.58429 259.277 8.0716C262.793 8.43781 266.674 7.63215 270.556 7.77863L270.409 7.92512C271.801 7.55891 273.558 8.43781 274.437 7.92512H274.291C275.023 7.63215 276.048 8.51105 276.488 8.21808L276.634 8.36457C277.513 8.43781 276.707 8.21808 277.44 8.14484C277.733 8.14484 277.513 8.36457 278.099 8.29132C278.245 7.77863 280.296 8.43781 280.369 7.85187C279.857 7.85187 281.102 7.63215 280.003 7.48566C280.296 7.41242 281.834 7.48566 281.687 7.70539C281.834 7.99836 282.42 8.21808 281.468 8.43781L281.321 8.21808C281.028 8.43781 281.102 8.29132 280.955 8.43781C279.783 8.43781 279.564 8.73078 278.758 8.87726C278.172 8.65753 277.367 8.80402 276.927 8.80402L276.781 8.87726C276.488 9.09699 275.389 8.43781 275.755 8.80402C273.339 8.73078 270.556 8.73078 267.846 8.73078C267.48 8.58429 265.795 8.73078 266.381 8.43781C265.722 8.73078 263.672 8.87726 262.939 8.80402C262.939 8.80402 263.012 8.87726 263.086 8.87726C261.621 9.31671 261.328 8.51105 260.01 9.02374C259.79 8.65753 257.52 9.17023 256.787 8.73078C256.421 8.80402 256.421 8.87726 256.421 8.9505C253.931 8.9505 251.221 9.09699 249.171 9.09699C247.413 8.80402 244.85 9.24347 243.385 8.80402C242.14 8.87726 240.09 9.09699 238.332 8.87726L238.479 8.9505C236.501 8.9505 234.011 8.87726 232.62 8.65753C232.034 9.09699 231.155 9.02374 230.276 9.17023C228.958 8.9505 226.248 9.02374 224.271 8.87726C223.978 9.09699 222.586 8.80402 222.513 9.09699C216.801 8.51105 209.77 8.73078 203.692 9.17023H203.765C202.959 9.02374 202.081 8.65753 201.275 8.51105C201.202 8.51105 201.202 8.58429 201.348 8.58429C200.25 8.51105 199.224 8.80402 198.126 8.73078C198.126 8.73078 198.199 8.80402 198.346 8.80402C197.32 8.65753 196.222 9.02374 194.977 8.80402H194.903L194.098 8.73078C194.098 8.80402 194.171 8.9505 194.537 8.9505C185.017 9.02374 175.203 8.58429 165.39 8.65753L165.756 8.73078L163.852 8.58429C163.852 8.65753 163.925 8.65753 164.071 8.65753C161.655 8.80402 159.165 8.58429 156.821 8.58429C156.821 8.65753 157.187 8.73078 156.894 8.80402C155.137 8.58429 154.111 9.09699 153.233 8.58429C153.159 8.58429 153.086 8.73078 153.306 8.73078C152.72 8.73078 152.061 8.65753 151.475 8.65753C150.889 8.65753 150.303 8.65753 149.571 8.58429C148.179 8.36457 147.081 7.63215 146.055 6.82649C145.103 6.02083 144.225 5.06868 143.346 4.18978C142.906 3.75033 142.54 3.31088 142.101 3.01791C141.661 2.72494 141.149 2.43197 140.636 2.28549C139.83 1.84604 138.805 1.69955 137.78 1.91928C136.755 2.06576 135.803 2.57846 135.07 3.23763C133.605 4.70247 132.141 6.53352 130.163 7.48566L130.237 7.55891C129.578 7.85187 128.918 8.14484 128.186 8.21808C127.454 8.29132 126.795 8.21808 126.062 8.21808C124.671 8.21808 123.279 8.21808 121.815 8.21808C118.958 8.29132 116.102 8.36457 113.246 8.29132C110.903 8.36457 109.291 8.21808 106.948 8.21808L106.875 8.36457C102.92 7.92511 98.5257 8.80402 94.3513 8.29132L94.6443 8.43781C93.9851 8.21808 92.1543 8.51105 92.374 8.0716L91.6416 8.21808C88.8587 7.63215 86.5151 8.51105 83.0731 8.0716L83.2928 8.14484C82.3407 8.0716 81.3154 7.99836 80.5831 8.0716C80.7295 8.0716 80.6563 8.14484 80.876 8.14484C78.0198 8.58429 74.7975 8.0716 71.7948 8.14484L72.161 8.36457C70.6963 8.14484 67.9866 8.36457 66.0825 8.21808L66.2289 8.29132L65.2769 8.14484V8.29132C62.6404 8.36457 60.2969 8.21808 57.8069 8.14484Z" fill="url(#paint0_linear_7555_1829)"/>
<g filter="url(#filter0_f_7555_1829)">
<circle cx="138.969" cy="8.87189" r="5.17334" fill="#3425FF"/>
</g>
<g filter="url(#filter1_i_7555_1829)">
<path d="M138.571 3.69855L144.143 9.26984L138.571 14.8411L133 9.26984L138.571 3.69855Z" fill="#3425FF"/>
</g>
<defs>
<filter id="filter0_f_7555_1829" x="130.796" y="0.698547" width="16.3467" height="16.3467" filterUnits="userSpaceOnUse" color-interpolation-filters="sRGB">
<feFlood flood-opacity="0" result="BackgroundImageFix"/>
<feBlend mode="normal" in="SourceGraphic" in2="BackgroundImageFix" result="shape"/>
<feGaussianBlur stdDeviation="1.5" result="effect1_foregroundBlur_7555_1829"/>
</filter>
<filter id="filter1_i_7555_1829" x="133" y="3.69855" width="11.1426" height="12.1426" filterUnits="userSpaceOnUse" color-interpolation-filters="sRGB">
<feFlood flood-opacity="0" result="BackgroundImageFix"/>
<feBlend mode="normal" in="SourceGraphic" in2="BackgroundImageFix" result="shape"/>
<feColorMatrix in="SourceAlpha" type="matrix" values="0 0 0 0 0 0 0 0 0 0 0 0 0 0 0 0 0 0 127 0" result="hardAlpha"/>
<feOffset dy="1"/>
<feGaussianBlur stdDeviation="3.5"/>
<feComposite in2="hardAlpha" operator="arithmetic" k2="-1" k3="1"/>
<feColorMatrix type="matrix" values="0 0 0 0 0 0 0 0 0 0 0 0 0 0 0 0 0 0 0.25 0"/>
<feBlend mode="normal" in2="shape" result="effect1_innerShadow_7555_1829"/>
</filter>
<linearGradient id="paint0_linear_7555_1829" x1="-3.98256" y1="5.18023" x2="281.936" y2="5.18023" gradientUnits="userSpaceOnUse">
<stop stop-color="#3425FF" stop-opacity="0"/>
<stop offset="0.25" stop-color="#3425FF"/>
<stop offset="0.500694" stop-color="#3425FF"/>
<stop offset="0.75" stop-color="#3425FF"/>
<stop offset="1" stop-color="#3425FF" stop-opacity="0"/>
</linearGradient>
</defs>
</svg>
