<svg width="18" height="20" viewBox="0 0 18 20" fill="none" xmlns="http://www.w3.org/2000/svg">
<path d="M4.5 19.25H12.916C13.8443 19.25 14.7345 18.8813 15.3909 18.2249C16.0473 17.5685 16.416 16.6783 16.416 15.75V10.22C16.4163 9.29186 16.048 8.40159 15.392 7.745L9.423 1.775C9.09797 1.45 8.71211 1.19221 8.28745 1.01634C7.86278 0.840469 7.40764 0.749967 6.948 0.75H4.5C3.57174 0.75 2.6815 1.11875 2.02513 1.77513C1.36875 2.4315 1 3.32174 1 4.25V15.75C1 16.6783 1.36875 17.5685 2.02513 18.2249C2.6815 18.8813 3.57174 19.25 4.5 19.25Z" stroke="black" stroke-width="1.5" stroke-linecap="round" stroke-linejoin="round"/>
<path fill-rule="evenodd" clip-rule="evenodd" d="M7.14479 5.14095C6.90579 5.21895 6.75279 5.37695 6.70879 5.55195C6.61879 5.90395 6.70879 6.28195 6.96179 6.75495C7.08779 6.98895 7.24179 7.22595 7.41179 7.47995L7.50379 7.61695L7.64879 7.83195L7.66779 7.76395L7.75379 7.45795C7.85246 7.12262 7.92913 6.78262 7.98379 6.43795C8.07279 5.79595 7.97279 5.41995 7.67479 5.17795C7.59479 5.11295 7.39679 5.05895 7.14479 5.14095ZM7.19979 9.29295L6.92979 8.93095L6.89779 8.88295C6.78279 8.69295 6.65479 8.50295 6.51579 8.29795L6.41579 8.14895C6.23179 7.88143 6.06092 7.6051 5.90379 7.32095C5.59379 6.74295 5.34579 6.03495 5.54579 5.25395C5.71579 4.58995 6.24379 4.17295 6.77279 3.99995C7.28979 3.83195 7.94679 3.85295 8.43279 4.24695C9.22479 4.89095 9.28079 5.81995 9.17179 6.60395C9.11107 7.00067 9.02387 7.39288 8.91079 7.77795L8.81479 8.11795C8.74013 8.37262 8.67079 8.62895 8.60679 8.88695L8.53979 9.08095L9.93179 10.945C10.5818 10.867 11.2958 10.82 11.9618 10.868C12.7308 10.922 13.5568 11.11 14.1198 11.644C14.3009 11.8319 14.432 12.0623 14.501 12.3141C14.57 12.5658 14.5748 12.8309 14.5148 13.085C14.3978 13.565 14.0608 13.965 13.5958 14.208C12.6108 14.723 11.6938 14.313 11.0128 13.792C10.4798 13.385 9.96779 12.817 9.53679 12.339L9.43279 12.225C9.06279 12.282 8.71279 12.346 8.42879 12.4C8.12379 12.457 7.74479 12.528 7.33279 12.62L7.18179 13.063C7.09846 13.255 7.01913 13.4483 6.94379 13.643L6.82179 13.946C6.69868 14.2579 6.55606 14.5619 6.39479 14.856C6.06479 15.434 5.53779 16.048 4.65379 16.097C3.46979 16.163 2.66779 15.112 2.89779 13.989L2.90379 13.962C3.10379 13.171 3.79779 12.652 4.46879 12.309C5.06579 12.003 5.76279 11.777 6.40979 11.608L7.19979 9.29295ZM8.06979 10.458L7.78279 11.301L8.20379 11.221L8.20779 11.22L8.58779 11.15L8.06979 10.458ZM10.9098 12.062C11.1838 12.352 11.4568 12.622 11.7408 12.839C12.2908 13.259 12.6808 13.332 13.0398 13.144C13.2398 13.039 13.3238 12.903 13.3488 12.802C13.3609 12.7478 13.36 12.6915 13.3461 12.6378C13.3322 12.5841 13.3057 12.5344 13.2688 12.493C13.0118 12.265 12.5468 12.113 11.8768 12.065C11.5548 12.0445 11.2319 12.0435 10.9098 12.062ZM5.90479 13.009C5.58679 13.118 5.28479 13.239 5.01479 13.377C4.42779 13.677 4.14479 13.981 4.07079 14.244C3.99279 14.659 4.26279 14.917 4.58679 14.899C4.85679 14.884 5.09279 14.715 5.35279 14.26C5.48879 14.012 5.60813 13.7563 5.71079 13.493L5.81779 13.227L5.90479 13.009Z" fill="black"/>
</svg>
