<svg width="14" height="12" viewBox="0 0 14 12" fill="none" xmlns="http://www.w3.org/2000/svg">
<path d="M12.6875 11.25H1.3125C0.58625 11.25 0 10.6637 0 9.9375V2.0625C0 1.33625 0.58625 0.75 1.3125 0.75H12.6875C13.4137 0.75 14 1.33625 14 2.0625V9.9375C14 10.6637 13.4137 11.25 12.6875 11.25ZM1.3125 1.625C1.0675 1.625 0.875 1.8175 0.875 2.0625V9.9375C0.875 10.1825 1.0675 10.375 1.3125 10.375H12.6875C12.9325 10.375 13.125 10.1825 13.125 9.9375V2.0625C13.125 1.8175 12.9325 1.625 12.6875 1.625H1.3125Z" fill="#4E4E4E"/>
<path d="M6.99999 7.71504C6.38749 7.71504 5.82749 7.47004 5.40749 7.02379L0.813744 2.14129C0.647494 1.96629 0.656244 1.68629 0.831244 1.52004C1.00624 1.35379 1.28624 1.36254 1.45249 1.53754L6.04624 6.42004C6.54499 6.95379 7.45499 6.95379 7.95374 6.42004L12.5475 1.54629C12.7137 1.37129 12.9937 1.36254 13.1687 1.52879C13.3437 1.69504 13.3525 1.97504 13.1862 2.15004L8.59249 7.03254C8.17249 7.47879 7.61249 7.72379 6.99999 7.72379V7.71504Z" fill="#4E4E4E"/>
</svg>
