<svg width="11" height="14" viewBox="0 0 11 14" fill="none" xmlns="http://www.w3.org/2000/svg">
<path d="M1.85403 0.309928L2.62485 0.0775823C3.49838 -0.185723 4.43169 0.239803 4.80578 1.07194L5.40134 2.39675C5.7202 3.10603 5.55217 3.9396 4.98342 4.46996L3.99642 5.39036C3.96757 5.41726 3.9493 5.4536 3.94493 5.4928C3.91563 5.75512 4.09346 6.26596 4.50315 6.97557C4.80107 7.4916 5.07073 7.85348 5.30025 8.05701C5.46017 8.19881 5.5482 8.22948 5.58567 8.21832L6.91351 7.81236C7.65699 7.58505 8.46269 7.85611 8.91759 8.48657L9.76353 9.65898C10.296 10.3969 10.2002 11.415 9.53953 12.0407L8.95408 12.5951C8.32234 13.1934 7.42302 13.4163 6.58499 13.1824C4.76587 12.6747 3.13486 11.1395 1.67388 8.60905C0.210876 6.07505 -0.302471 3.89242 0.170756 2.06161C0.387318 1.22376 1.02546 0.559679 1.85403 0.309928ZM2.13997 1.25854C1.64283 1.40839 1.25994 1.80684 1.13 2.30955C0.731944 3.84955 1.18694 5.7841 2.53192 8.11367C3.87509 10.4401 5.32092 11.8009 6.85135 12.2281C7.35417 12.3685 7.89376 12.2347 8.27281 11.8757L8.85826 11.3213C9.15858 11.0369 9.2021 10.5741 8.96008 10.2387L8.11413 9.0663C7.90736 8.77972 7.54113 8.65652 7.20319 8.75984L5.87203 9.1668C5.09942 9.39711 4.39816 8.77528 3.64511 7.47096C3.13764 6.59199 2.90111 5.91253 2.96028 5.38283C2.99092 5.10843 3.11878 4.85406 3.32071 4.66575L4.30772 3.74536C4.56624 3.50428 4.64262 3.12539 4.49768 2.80299L3.90212 1.47818C3.73208 1.09993 3.30785 0.906513 2.91079 1.0262L2.13997 1.25854Z" fill="#4E4E4E"/>
</svg>
