<svg width="52" height="52" viewBox="0 0 52 52" fill="none" xmlns="http://www.w3.org/2000/svg">
<rect x="0.480048" y="0.480048" width="51.0399" height="51.0399" rx="25.52" fill="#E8E6FF"/>
<rect x="0.480048" y="0.480048" width="51.0399" height="51.0399" rx="25.52" stroke="#3425FF" stroke-width="0.960095"/>
<g clip-path="url(#clip0_5220_450)">
<path d="M24.2563 19C23.1831 19 22.3147 19.8805 22.3147 20.9688V21.1875H19.9416C18.8683 21.1875 18 22.068 18 23.1562V31.0312C18 32.1195 18.8683 33 19.9416 33H33.0584C34.1317 33 35 32.1195 35 31.0312V23.1562C35 22.068 34.1317 21.1875 33.0584 21.1875H30.6853V20.9688C30.6853 19.8805 29.8169 19 28.7437 19H24.2563ZM30.9442 22.5H33.3173C33.6759 22.5 33.9645 22.7926 33.9645 23.1562V24.25H32.4543C32.0957 24.25 31.8071 24.5426 31.8071 24.9062C31.8071 25.2699 32.0957 25.5625 32.4543 25.5625H33.9645V26.875H32.4543C32.0957 26.875 31.8071 27.1676 31.8071 27.5312C31.8071 27.8949 32.0957 28.1875 32.4543 28.1875H33.9645V31.0312C33.9645 31.3949 33.6759 31.6875 33.3173 31.6875H30.9442V22.5ZM19.9416 22.5H22.3147V31.6875H20.0899C19.734 31.6875 19.4427 31.3949 19.4427 31.0312V28.1875H20.9529C21.3115 28.1875 21.6001 27.8949 21.6001 27.5312C21.6001 27.1676 21.3115 26.875 20.9529 26.875H19.4427V25.5625H20.9529C21.3115 25.5625 21.6001 25.2699 21.6001 24.9062C21.6001 24.5426 21.3115 24.25 20.9529 24.25H19.4427V23.1562C19.4427 22.7926 19.7313 22.5 20.0899 22.5H19.9416ZM23.6091 20.9688C23.6091 20.6051 23.8977 20.3125 24.2563 20.3125H29.0025C29.3612 20.3125 29.6497 20.6051 29.6497 20.9688V31.6875H27.9239V29.9375C27.9239 29.2129 27.3441 28.625 26.6294 28.625C25.9148 28.625 25.335 29.2129 25.335 29.9375V31.6875H23.6091V20.9688ZM25.9822 21.625V22.2812H25.335C25.0977 22.2812 24.9036 22.4781 24.9036 22.7188V23.1562C24.9036 23.3969 25.0977 23.5938 25.335 23.5938H25.9822V24.25C25.9822 24.4906 26.1764 24.6875 26.4137 24.6875H26.8452C27.0825 24.6875 27.2766 24.4906 27.2766 24.25V23.5938H27.9239C28.1612 23.5938 28.3553 23.3969 28.3553 23.1562V22.7188C28.3553 22.4781 28.1612 22.2812 27.9239 22.2812H27.2766V21.625C27.2766 21.3844 27.0825 21.1875 26.8452 21.1875H26.4137C26.1764 21.1875 25.9822 21.3844 25.9822 21.625Z" fill="#3425FF"/>
</g>
<defs>
<clipPath id="clip0_5220_450">
<rect width="17" height="14" fill="white" transform="translate(18 19)"/>
</clipPath>
</defs>
</svg>
