<svg width="27" height="7" viewBox="0 0 27 7" fill="none" xmlns="http://www.w3.org/2000/svg">
<path d="M11.8135 7C8.51732 7 5.92178 3.91718 5.81289 3.78541C5.67565 3.61983 5.67565 3.38017 5.81289 3.21459C5.92178 3.08282 8.51732 0 11.8135 0C15.1096 0 17.7051 3.08282 17.814 3.21459C17.9513 3.38017 17.9513 3.61983 17.814 3.78541C17.7051 3.91718 15.1096 7 11.8135 7ZM6.7626 3.5C7.46369 4.23043 9.48891 6.10449 11.8135 6.10449C14.138 6.10449 16.1632 4.22993 16.8643 3.5C16.1632 2.76957 14.138 0.895508 11.8135 0.895508C9.48891 0.895508 7.46369 2.77007 6.7626 3.5Z" fill="white"/>
<path d="M25.8884 4H12.6662C12.4515 4 12.2773 3.77612 12.2773 3.50001C12.2773 3.2239 12.4515 3 12.6662 3H25.8884C26.1032 3 26.2773 3.2239 26.2773 3.50001C26.2773 3.77612 26.1032 4 25.8884 4Z" fill="white"/>
<path d="M4.26254 3.94812H0.947506C0.700383 3.94812 0.5 3.74774 0.5 3.50062C0.5 3.2535 0.700383 3.0531 0.947506 3.0531H4.26254C4.50966 3.0531 4.71004 3.2535 4.71004 3.50062C4.71004 3.74774 4.50966 3.94812 4.26254 3.94812Z" fill="white"/>
</svg>
