<svg width="20" height="20" viewBox="0 0 20 20" fill="none" xmlns="http://www.w3.org/2000/svg">
<rect width="20" height="20" rx="10" fill="#ECECEC"/>
<path fill-rule="evenodd" clip-rule="evenodd" d="M14.7781 6.92255L10.4379 10.8435C10.3146 10.955 10.1595 11.016 9.99931 11.016C9.83915 11.016 9.68402 10.955 9.56069 10.8435L5.22256 6.92255C5.19929 6.99898 5.18745 7.079 5.1875 7.15955V13.1595C5.1875 13.3585 5.25993 13.5492 5.38886 13.6899C5.5178 13.8305 5.69266 13.9095 5.875 13.9095H14.125C14.3073 13.9095 14.4822 13.8305 14.6111 13.6899C14.7401 13.5492 14.8125 13.3585 14.8125 13.1595V7.15955C14.8128 7.07905 14.8012 6.99902 14.7781 6.92255ZM5.875 5.65955H14.125C14.4897 5.65955 14.8394 5.81758 15.0973 6.09889C15.3551 6.38019 15.5 6.76172 15.5 7.15955V13.1595C15.5 13.5574 15.3551 13.9389 15.0973 14.2202C14.8394 14.5015 14.4897 14.6595 14.125 14.6595H5.875C5.51033 14.6595 5.16059 14.5015 4.90273 14.2202C4.64487 13.9389 4.5 13.5574 4.5 13.1595V7.15955C4.5 6.76172 4.64487 6.38019 4.90273 6.09889C5.16059 5.81758 5.51033 5.65955 5.875 5.65955ZM5.73062 6.40955L9.56413 9.8618C9.6869 9.97242 9.84108 10.0331 10.0003 10.0335C10.1596 10.0339 10.314 9.97404 10.4372 9.86405L14.3092 6.40955H5.73062Z" fill="#3425FF"/>
</svg>
