<svg width="24" height="24" viewBox="0 0 24 24" fill="none" xmlns="http://www.w3.org/2000/svg">
<rect width="24" height="23.2" rx="11.6" fill="#3425FF"/>
<path d="M9.03378 5.6508L9.73398 5.43974C10.5275 5.20056 11.3753 5.5871 11.7151 6.34299L12.2561 7.54643C12.5457 8.19072 12.3931 8.94793 11.8765 9.4297L10.9799 10.2658C10.9537 10.2902 10.9371 10.3232 10.9331 10.3588C10.9065 10.5971 11.068 11.0612 11.4402 11.7057C11.7108 12.1745 11.9558 12.5032 12.1643 12.6881C12.3095 12.8169 12.3895 12.8448 12.4235 12.8346L13.6297 12.4659C14.3051 12.2594 15.037 12.5056 15.4502 13.0783L16.2186 14.1433C16.7023 14.8136 16.6153 15.7384 16.0151 16.3068L15.4833 16.8104C14.9095 17.3539 14.0926 17.5564 13.3313 17.3439C11.6788 16.8827 10.1973 15.4882 8.87013 13.1896C7.54117 10.8877 7.07485 8.90506 7.50472 7.24199C7.70144 6.4809 8.28112 5.87767 9.03378 5.6508ZM9.29352 6.5125C8.84192 6.64862 8.49412 7.01056 8.37608 7.46722C8.01449 8.86613 8.42781 10.6234 9.64956 12.7396C10.8697 14.8529 12.183 16.089 13.5733 16.4771C14.03 16.6046 14.5202 16.483 14.8645 16.157L15.3963 15.6533C15.6691 15.395 15.7086 14.9746 15.4888 14.6699L14.7203 13.6049C14.5325 13.3446 14.1998 13.2327 13.8929 13.3265L12.6837 13.6962C11.9818 13.9054 11.3448 13.3406 10.6608 12.1557C10.1998 11.3573 9.98493 10.7401 10.0387 10.2589C10.0665 10.0097 10.1827 9.7786 10.3661 9.60755L11.2627 8.77148C11.4975 8.55249 11.5669 8.20831 11.4352 7.91545L10.8942 6.71201C10.7398 6.36842 10.3544 6.19272 9.99372 6.30144L9.29352 6.5125Z" fill="white"/>
</svg>
