<svg width="27" height="7" viewBox="0 0 27 7" fill="none" xmlns="http://www.w3.org/2000/svg">
<path d="M15.1865 7C18.4827 7 21.0782 3.91718 21.1871 3.78541C21.3243 3.61983 21.3243 3.38017 21.1871 3.21459C21.0782 3.08282 18.4827 0 15.1865 0C11.8904 0 9.29487 3.08282 9.18598 3.21459C9.04874 3.38017 9.04874 3.61983 9.18598 3.78541C9.29487 3.91718 11.8904 7 15.1865 7ZM20.2374 3.5C19.5363 4.23043 17.5111 6.10449 15.1865 6.10449C12.862 6.10449 10.8368 4.22993 10.1357 3.5C10.8368 2.76957 12.862 0.895508 15.1865 0.895508C17.5111 0.895508 19.5363 2.77007 20.2374 3.5Z" fill="white"/>
<path d="M1.11156 4H14.3338C14.5485 4 14.7227 3.77612 14.7227 3.50001C14.7227 3.2239 14.5485 3 14.3338 3H1.11156C0.896797 3 0.722656 3.2239 0.722656 3.50001C0.722656 3.77612 0.896797 4 1.11156 4Z" fill="white"/>
<path d="M22.7375 3.94812H26.0525C26.2996 3.94812 26.5 3.74774 26.5 3.50062C26.5 3.2535 26.2996 3.0531 26.0525 3.0531H22.7375C22.4903 3.0531 22.29 3.2535 22.29 3.50062C22.29 3.74774 22.4903 3.94812 22.7375 3.94812Z" fill="white"/>
</svg>
