<svg width="10" height="12" viewBox="0 0 10 12" fill="none" xmlns="http://www.w3.org/2000/svg">
<path d="M2.03378 0.250771L2.73398 0.0397126C3.52748 -0.199469 4.37528 0.187071 4.71509 0.942969L5.25609 2.1464C5.54573 2.7907 5.3931 3.5479 4.87646 4.02967L3.97988 4.86574C3.95368 4.89018 3.93709 4.92319 3.93311 4.9588C3.9065 5.19709 4.06803 5.66113 4.44019 6.30572C4.71082 6.77447 4.95577 7.1032 5.16426 7.28808C5.30953 7.41689 5.38949 7.44475 5.42353 7.43461L6.62972 7.06584C7.30508 6.85937 8.03696 7.10559 8.45019 7.67828L9.21863 8.74328C9.7023 9.4136 9.61532 10.3384 9.01515 10.9068L8.48334 11.4104C7.90948 11.9539 7.09255 12.1564 6.33129 11.9439C4.67884 11.4827 3.19726 10.0882 1.87013 7.78955C0.541166 5.48771 0.0748502 3.50504 0.504721 1.84197C0.701443 1.08088 1.28112 0.477641 2.03378 0.250771ZM2.29352 1.11248C1.84192 1.2486 1.49412 1.61054 1.37608 2.06719C1.01449 3.4661 1.42781 5.22341 2.64956 7.33955C3.86968 9.45285 5.18304 10.689 6.57326 11.077C7.03001 11.2045 7.52017 11.083 7.86448 10.7569L8.39629 10.2533C8.6691 9.99494 8.70863 9.57459 8.48878 9.2699L7.72034 8.2049C7.53251 7.94458 7.19984 7.83266 6.89286 7.92652L5.68365 8.2962C4.98183 8.50541 4.34482 7.94054 3.66077 6.75572C3.19978 5.95728 2.98493 5.34007 3.03867 4.8589C3.06651 4.60964 3.18265 4.37858 3.36608 4.20753L4.26267 3.37145C4.4975 3.15247 4.56688 2.80828 4.43522 2.51542L3.89422 1.31199C3.73976 0.968398 3.3544 0.792698 2.99372 0.901417L2.29352 1.11248Z" fill="#3425FF"/>
</svg>
