<svg width="19" height="19" viewBox="0 0 19 19" fill="none" xmlns="http://www.w3.org/2000/svg">
<path d="M13.5 6.83496C15.3125 6.84496 16.2942 6.92579 16.9342 7.56579C17.6667 8.29829 17.6667 9.47663 17.6667 11.8333V12.6666C17.6667 15.0241 17.6667 16.2025 16.9342 16.935C16.2025 17.6666 15.0233 17.6666 12.6667 17.6666H6C3.64333 17.6666 2.46417 17.6666 1.7325 16.935C1 16.2016 1 15.0241 1 12.6666V11.8333C1 9.47663 1 8.29829 1.7325 7.56579C2.3725 6.92579 3.35417 6.84496 5.16667 6.83496" stroke="black" stroke-width="1.25" stroke-linecap="round"/>
<path d="M9.33301 11.8333V1M9.33301 1L11.833 3.91667M9.33301 1L6.83301 3.91667" stroke="black" stroke-width="1.25" stroke-linecap="round" stroke-linejoin="round"/>
</svg>
